<svg width="32" height="32" viewBox="0 0 32 32" fill="none" xmlns="http://www.w3.org/2000/svg">
  <defs>
    <linearGradient id="gradient" x1="0%" y1="0%" x2="100%" y2="100%">
      <stop offset="0%" style="stop-color:#3B82F6;stop-opacity:1" />
      <stop offset="100%" style="stop-color:#60A5FA;stop-opacity:1" />
    </linearGradient>
  </defs>
  <rect width="32" height="32" rx="8" fill="url(#gradient)"/>
  <path d="M16 6L18.5 12.5L25 15L18.5 17.5L16 24L13.5 17.5L7 15L13.5 12.5L16 6Z" fill="white"/>
  <path d="M22 18L23 20L25 21L23 22L22 24L21 22L19 21L21 20L22 18Z" fill="white" opacity="0.8"/>
  <path d="M10 18L11 20L13 21L11 22L10 24L9 22L7 21L9 20L10 18Z" fill="white" opacity="0.6"/>
</svg> 